<svg width="32" height="32" viewBox="0 0 32 32" fill="none" xmlns="http://www.w3.org/2000/svg">
<path d="M28.564 3.434C27.6472 2.51716 26.4036 2.00209 25.107 2.00209C23.8104 2.00209 22.5669 2.51716 21.65 3.434L4.35701 20.73C3.85271 21.234 3.50476 21.8729 3.35501 22.57L2.02201 28.79C1.98686 28.9534 1.9932 29.1229 2.04046 29.2832C2.08771 29.4435 2.17437 29.5893 2.29253 29.7075C2.41068 29.8256 2.55656 29.9123 2.71683 29.9596C2.8771 30.0068 3.04666 30.0132 3.21001 29.978L9.43001 28.645C10.1271 28.4953 10.766 28.1473 11.27 27.643L28.565 10.348C29.4816 9.43101 29.9965 8.18754 29.9965 6.891C29.9965 5.59446 29.4816 4.35099 28.565 3.434H28.564ZM23.064 4.848C23.61 4.32654 24.3383 4.03944 25.0933 4.04811C25.8482 4.05677 26.5698 4.36052 27.1036 4.89438C27.6375 5.42823 27.9412 6.1498 27.9499 6.90474C27.9586 7.65968 27.6715 8.38803 27.15 8.934L26.25 9.834L22.164 5.749L23.064 4.848ZM20.75 7.163L24.836 11.249L9.85701 26.23C9.62524 26.4617 9.33146 26.6214 9.01101 26.69L4.30001 27.7L5.31001 22.99C5.3786 22.6696 5.53835 22.3758 5.77001 22.144L20.748 7.164L20.75 7.163Z" fill="#302E9D"/>
</svg>
