<?xml version="1.0" encoding="UTF-8"?>
<!DOCTYPE svg PUBLIC "-//W3C//DTD SVG 1.1//EN" "http://www.w3.org/Graphics/SVG/1.1/DTD/svg11.dtd">
<!-- Creator: CorelDRAW -->
<svg xmlns="http://www.w3.org/2000/svg" xml:space="preserve" width="800px" height="800px" version="1.1" style="shape-rendering:geometricPrecision; text-rendering:geometricPrecision; image-rendering:optimizeQuality; fill-rule:evenodd; clip-rule:evenodd"
viewBox="0 0 800 800"
 xmlns:xlink="http://www.w3.org/1999/xlink">
 <defs>
  <style type="text/css">
   <![CDATA[
    .fil1 {fill:#378B4E}
    .fil4 {fill:#7DD63E}
    .fil3 {fill:#8258B0}
    .fil2 {fill:#9062C4}
    .fil0 {fill:#EBEBEB}
   ]]>
  </style>
 </defs>
 <g id="Layer_x0020_1">
  <metadata id="CorelCorpID_0Corel-Layer"/>
  <path class="fil0" d="M400 0c289,0 400,111 400,400 0,289 -111,400 -400,400 -289,0 -400,-111 -400,-400 0,-289 111,-400 400,-400z"/>
  <g id="_516360496">
   <path class="fil1" d="M435 656c-1,0 -3,-1 -3,-3 -17,-56 -26,-111 -28,-167 -1,-2 1,-4 3,-4 2,-1 4,1 4,3 3,56 12,110 28,166 1,2 -1,4 -3,5 0,0 0,0 -1,0zm-27 -250c0,0 0,0 0,0 -2,0 -4,-2 -4,-4 1,-18 3,-36 5,-57 0,-2 2,-4 4,-4 2,1 4,2 4,5 -2,20 -4,39 -5,56 0,2 -2,4 -4,4zm14 -139c0,0 0,0 0,0 -3,0 -4,-2 -4,-5l1 -6c1,-8 2,-16 3,-24 0,-2 2,-4 4,-3 2,0 4,2 4,4 -1,8 -2,16 -3,24l-1 6c0,2 -2,4 -4,4z"/>
   <path class="fil2" d="M442 244c-9,0 -16,-3 -20,-9 -1,-2 11,-35 23,-43 2,-1 3,-2 5,-3 22,-13 45,-13 52,-1 4,7 3,15 -3,24 -5,8 -14,16 -24,22 -10,6 -21,9 -31,10 0,0 -1,0 -2,0z"/>
   <path class="fil2" d="M409 244c0,0 -1,0 -2,0 -9,-1 -20,-4 -31,-10 -10,-6 -18,-14 -24,-22 -5,-9 -6,-17 -3,-24 7,-12 31,-12 53,1 2,1 3,2 4,3 11,7 24,41 23,43 -3,6 -10,9 -20,9z"/>
   <g>
    <path class="fil3" d="M431 242c-4,-2 -7,-4 -9,-7 -1,-2 0,-5 2,-6 2,-1 4,0 5,2 1,1 3,3 5,3l0 0c9,-5 16,-19 17,-36 0,0 -1,0 -2,1 -1,1 -4,0 -5,-1 -1,-2 -1,-5 1,-6 2,-1 3,-2 5,-3 2,-1 5,-2 7,-4 0,2 0,4 0,5 0,12 -2,24 -7,34 -4,8 -10,16 -19,18z"/>
    <path class="fil3" d="M394 185c3,2 5,3 8,4 2,1 3,2 4,3 2,1 3,4 2,6 -2,1 -4,2 -6,1 0,-1 -1,-1 -2,-1 2,17 9,31 18,36 2,0 3,-2 4,-3 1,-2 4,-3 6,-2 2,1 2,4 1,6 -2,3 -5,5 -9,7 -8,-2 -15,-10 -19,-18 -5,-10 -7,-22 -7,-34 0,-1 0,-3 0,-5z"/>
   </g>
   <g>
    <path class="fil2" d="M407 370c2,-2 4,-5 5,-8 2,-3 4,-7 4,-11 0,0 0,0 0,0 0,0 0,0 0,0 0,0 0,0 0,0 0,0 0,-1 0,-1 0,0 0,0 0,0 0,0 0,0 0,0 0,0 -1,0 -1,0 -2,0 -3,-1 -4,-1 -2,-1 -33,-16 -45,-10 -2,1 -3,2 -5,3 0,0 -1,0 -2,1 -21,13 -32,32 -25,44 4,6 11,9 20,9 10,0 21,-3 33,-10 8,-5 15,-10 20,-16z"/>
    <path class="fil3" d="M416 352l0 -1c0,0 0,0 0,0 0,0 0,0 0,0 0,0 0,0 0,0 0,0 0,-1 0,-1 0,0 0,0 0,0 0,0 0,0 0,0 0,0 -1,0 -1,0 -2,0 -3,-1 -4,-1 -2,-1 -33,-16 -45,-10 -2,1 -3,2 -5,3 0,0 -1,0 -2,1 -1,1 -3,2 -5,3 2,2 5,3 7,5 10,5 22,9 33,9 8,0 16,-2 22,-8z"/>
    <path class="fil2" d="M470 396c-9,0 -21,-3 -32,-10 -17,-9 -28,-23 -30,-35 0,-2 2,-4 4,-4 1,0 45,-9 47,-8 1,1 3,2 4,3 23,13 34,32 27,45 -3,6 -11,9 -20,9z"/>
    <path class="fil3" d="M410 357c-1,-2 -1,-4 -2,-6 0,-2 2,-4 4,-4 1,0 45,-9 47,-8 1,1 3,2 4,3 3,1 5,3 7,4 -1,1 -2,2 -4,3 -8,5 -18,9 -28,10 -2,1 -5,1 -8,1 -6,0 -13,-1 -18,-5 -1,1 -2,1 -2,2z"/>
    <path class="fil2" d="M430 354c-7,0 -12,-2 -16,-5 -2,-2 -2,-4 -1,-6 2,-2 21,-41 23,-43 0,0 1,0 2,-1 10,-5 21,-9 30,-10 11,0 19,3 22,10 7,12 -4,32 -27,45 -8,5 -17,8 -26,9 -2,1 -5,1 -7,1zm25 -15l0 0c0,0 0,0 0,0z"/>
    <path class="fil2" d="M394 354c-32,0 -72,-35 -60,-55 11,-19 46,-6 63,8 9,6 17,38 16,39 -4,5 -11,8 -19,8z"/>
    <g>
     <path class="fil3" d="M426 354c-5,-1 -9,-3 -12,-5 -2,-2 -2,-4 -1,-6 2,-2 21,-41 23,-43 0,0 1,0 2,-1 3,-1 6,-3 9,-4 1,3 1,6 1,9 0,11 -2,23 -7,33 -4,7 -9,13 -15,17z"/>
     <path class="fil3" d="M385 298c1,1 1,1 2,1 4,3 7,5 10,8 9,6 17,38 16,39 -2,3 -5,5 -9,6 -5,-3 -9,-9 -12,-15 -5,-10 -7,-22 -7,-33 0,-2 0,-4 0,-6z"/>
    </g>
    <path class="fil2" d="M416 350c-14,0 -25,-21 -25,-46 0,-26 11,-47 25,-47 15,0 26,21 26,47 0,25 -11,46 -26,46z"/>
   </g>
   <path class="fil2" d="M426 237c-2,0 -4,-2 -4,-4 -4,-18 -1,-31 1,-40 1,-2 3,-3 5,-2 2,0 4,3 3,5 -3,7 -5,19 -1,36 0,2 -1,4 -3,4 -1,1 -1,1 -1,1z"/>
   <path class="fil4" d="M435 656c0,0 -1,0 -1,0 -2,-1 -3,-3 -3,-4 1,-42 50,-98 100,-98 20,0 38,9 53,27 1,1 2,3 1,5 -1,1 -3,2 -5,2 0,0 -7,-2 -18,-2 -28,0 -81,9 -123,68 -1,1 -2,2 -4,2z"/>
   <path class="fil4" d="M435 656c0,0 0,0 0,0 -1,0 -1,-1 -2,-1 -2,-1 -135,-108 -206,-108 -3,0 -5,1 -8,1 -2,0 -3,-1 -4,-3 -1,-1 0,-3 2,-4 14,-9 30,-14 47,-14 69,0 144,73 174,122 1,1 1,2 1,3 0,2 -1,4 -4,4z"/>
   <path class="fil2" d="M426 237c-15,0 -26,-21 -26,-47 0,-25 11,-46 26,-46 14,0 25,21 25,46 0,26 -11,47 -25,47z"/>
   <g>
    <path class="fil2" d="M403 513c2,-2 4,-5 6,-8 2,-3 3,-7 4,-10 0,0 0,-1 0,-1 0,0 0,0 0,0 0,0 0,0 0,0 0,0 0,0 0,0 0,0 0,0 0,-1 0,0 0,0 0,0 -1,0 -1,0 -1,0 -2,0 -3,-1 -5,-1 -1,-1 -32,-16 -45,-10 -1,1 -3,2 -4,3 -1,0 -1,1 -2,1 -21,13 -32,32 -25,44 3,6 10,9 20,9 9,0 21,-3 32,-10 8,-4 15,-10 20,-16z"/>
    <path class="fil3" d="M413 495l0 0c0,0 0,-1 0,-1 0,0 0,0 0,0 0,0 0,0 0,0 0,0 0,0 0,0 0,0 0,0 0,-1 0,0 0,0 0,0 -1,0 -1,0 -1,0 -2,0 -3,-1 -5,-1 -1,-1 -32,-16 -45,-10 -1,1 -3,2 -4,3 -1,0 -1,1 -2,1 -2,1 -4,2 -5,4 2,1 4,3 7,4 10,5 21,9 33,9 8,0 16,-2 22,-8z"/>
    <path class="fil2" d="M467 539c-10,0 -21,-3 -33,-10 -16,-9 -28,-23 -29,-35 0,-2 1,-4 3,-4 2,0 45,-9 47,-8 2,1 3,2 5,3 22,13 34,33 27,45 -4,6 -11,9 -20,9z"/>
    <path class="fil3" d="M406 500c0,-2 -1,-4 -1,-6 0,-2 1,-4 3,-4 2,0 45,-9 47,-8 2,1 3,2 5,3 2,1 5,3 7,5 -1,0 -3,1 -4,2 -9,5 -18,9 -28,10 -3,1 -5,1 -8,1 -6,0 -13,-1 -18,-5 -1,1 -2,1 -3,2z"/>
    <path class="fil2" d="M427 497c-7,0 -13,-2 -17,-5 -1,-1 -1,-4 0,-6 2,-2 21,-41 23,-42 0,-1 1,-1 1,-1 10,-6 21,-10 31,-10 10,-1 18,2 22,9 7,12 -5,32 -27,45 -9,5 -18,8 -26,9 -2,1 -5,1 -7,1zm24 -14l1 -1c0,0 0,0 -1,1z"/>
    <path class="fil2" d="M391 497c-32,0 -72,-35 -60,-55 10,-19 46,-6 63,8 8,7 17,38 16,39 -4,5 -11,8 -19,8z"/>
    <g>
     <path class="fil3" d="M422 497c-4,-1 -9,-2 -12,-5 -1,-1 -1,-4 0,-6 2,-2 21,-41 23,-42 0,-1 1,-1 1,-1 3,-2 7,-4 10,-5 0,3 1,6 1,9 0,11 -2,23 -8,34 -3,6 -8,13 -15,16z"/>
     <path class="fil3" d="M381 442c1,0 2,0 2,1 4,2 8,4 11,7 8,7 17,38 16,39 -2,3 -5,5 -9,6 -5,-3 -10,-9 -12,-14 -6,-11 -8,-23 -8,-34 0,-2 0,-4 0,-5z"/>
    </g>
    <path class="fil2" d="M413 493c-14,0 -26,-20 -26,-46 0,-26 12,-46 26,-46 14,0 26,20 26,46 0,26 -12,46 -26,46z"/>
   </g>
  </g>
 </g>
</svg>
